# xmcd CD database file
#
# Track frame offsets:
#	150
#	31403
#	52272
#	73299
#	92024
#	109251
#	129218
#	151586
#	178010
#	201543
#	224888
#	249419
#	274377
#
# Disc length: 4024 seconds
#
# Revision: 0
# Processed by: cddbd v1.5.2PL0 Copyright (c) Steve Scherf et al.
# Submitted via: jetAudio 7
#
DISCID=cc0fb60d
DTITLE=許茹蕓 - 鋼琴記事簿
DYEAR=1900
DGENRE=Pop
TTITLE0=如果雲知道
TTITLE1=美夢成眞
TTITLE2=突然想愛你
TTITLE3=獨角戲
TTITLE4=愛情電影院
TTITLE5=眞愛無敵
TTITLE6=不愛我放了我
TTITLE7=我依然愛你
TTITLE8=淚海
TTITLE9=破曉
TTITLE10=日光機場
TTITLE11=看透
TTITLE12=猫與鋼琴
EXTD=
EXTT0=
EXTT1=
EXTT2=
EXTT3=
EXTT4=
EXTT5=
EXTT6=
EXTT7=
EXTT8=
EXTT9=
EXTT10=
EXTT11=
EXTT12=
PLAYORDER=
